<svg version="1.1" viewBox="0.0 0.0 815.6771653543307 315.6955380577428" fill="none" stroke="none" stroke-linecap="square" stroke-miterlimit="10" xmlns:xlink="http://www.w3.org/1999/xlink" xmlns="http://www.w3.org/2000/svg"><clipPath id="p.0"><path d="m0 0l815.6772 0l0 315.69553l-815.6772 0l0 -315.69553z" clip-rule="nonzero"/></clipPath><g clip-path="url(#p.0)"><path fill="#000000" fill-opacity="0.0" d="m0 0l815.6772 0l0 315.69553l-815.6772 0z" fill-rule="evenodd"/><path shape-rendering="crispEdges" fill="#666666" d="m6.6141734 11.144357l109.926506 0l0 59.19423l-109.926506 0l0 -59.19423z" fill-rule="nonzero"/><path shape-rendering="crispEdges" fill="#666666" d="m116.54068 11.144357l109.92651 0l0 59.19423l-109.92651 0l0 -59.19423z" fill-rule="nonzero"/><path shape-rendering="crispEdges" fill="#666666" d="m226.4672 11.144357l109.92651 0l0 59.19423l-109.92651 0l0 -59.19423z" fill-rule="nonzero"/><path shape-rendering="crispEdges" fill="#b7b7b7" d="m6.6141734 70.338585l109.926506 0l0 59.19422l-109.926506 0l0 -59.19422z" fill-rule="nonzero"/><path shape-rendering="crispEdges" fill="#b7b7b7" d="m116.54068 70.338585l109.92651 0l0 59.19422l-109.92651 0l0 -59.19422z" fill-rule="nonzero"/><path shape-rendering="crispEdges" fill="#b7b7b7" d="m226.4672 70.338585l109.92651 0l0 59.19422l-109.92651 0l0 -59.19422z" fill-rule="nonzero"/><path shape-rendering="crispEdges" fill="#0b5394" d="m6.6141734 129.5328l109.926506 0l0 59.19423l-109.926506 0l0 -59.19423z" fill-rule="nonzero"/><path shape-rendering="crispEdges" fill="#0b5394" d="m116.54068 129.5328l109.92651 0l0 59.19423l-109.92651 0l0 -59.19423z" fill-rule="nonzero"/><path shape-rendering="crispEdges" fill="#0b5394" d="m226.4672 129.5328l109.92651 0l0 59.19423l-109.92651 0l0 -59.19423z" fill-rule="nonzero"/><path shape-rendering="crispEdges" fill="#0b5394" d="m6.6141734 188.72704l109.926506 0l0 59.19423l-109.926506 0l0 -59.19423z" fill-rule="nonzero"/><path shape-rendering="crispEdges" fill="#0b5394" d="m116.54068 188.72704l109.92651 0l0 59.19423l-109.92651 0l0 -59.19423z" fill-rule="nonzero"/><path shape-rendering="crispEdges" fill="#0b5394" d="m226.4672 188.72704l109.92651 0l0 59.19423l-109.92651 0l0 -59.19423z" fill-rule="nonzero"/><path shape-rendering="crispEdges" fill="#b7b7b7" d="m6.6141734 247.92126l109.926506 0l0 59.194214l-109.926506 0l0 -59.194214z" fill-rule="nonzero"/><path shape-rendering="crispEdges" fill="#b7b7b7" d="m116.54068 247.92126l109.92651 0l0 59.194214l-109.92651 0l0 -59.194214z" fill-rule="nonzero"/><path shape-rendering="crispEdges" fill="#b7b7b7" d="m226.4672 247.92126l109.92651 0l0 59.194214l-109.92651 0l0 -59.194214z" fill-rule="nonzero"/><path stroke="#ffffff" stroke-width="4.0" stroke-linecap="butt" d="m6.6141734 9.144357l0 299.97113" fill-rule="nonzero"/><path stroke="#ffffff" stroke-width="4.0" stroke-linecap="butt" d="m116.54068 9.144357l0 299.97113" fill-rule="nonzero"/><path stroke="#ffffff" stroke-width="4.0" stroke-linecap="butt" d="m226.4672 9.144357l0 299.97113" fill-rule="nonzero"/><path stroke="#ffffff" stroke-width="4.0" stroke-linecap="butt" d="m336.3937 9.144357l0 299.97113" fill-rule="nonzero"/><path stroke="#ffffff" stroke-width="4.0" stroke-linecap="butt" d="m4.6141734 11.144357l333.77954 0" fill-rule="nonzero"/><path stroke="#ffffff" stroke-width="4.0" stroke-linecap="butt" d="m4.6141734 70.338585l333.77954 0" fill-rule="nonzero"/><path stroke="#ffffff" stroke-width="4.0" stroke-linecap="butt" d="m4.6141734 129.5328l333.77954 0" fill-rule="nonzero"/><path stroke="#ffffff" stroke-width="4.0" stroke-linecap="butt" d="m4.6141734 188.72704l333.77954 0" fill-rule="nonzero"/><path stroke="#ffffff" stroke-width="4.0" stroke-linecap="butt" d="m4.6141734 247.92126l333.77954 0" fill-rule="nonzero"/><path stroke="#ffffff" stroke-width="4.0" stroke-linecap="butt" d="m4.6141734 307.11548l333.77954 0" fill-rule="nonzero"/><path shape-rendering="crispEdges" fill="#666666" d="m477.56168 70.338585l109.92648 0l0 59.19422l-109.92648 0l0 -59.19422z" fill-rule="nonzero"/><path shape-rendering="crispEdges" fill="#666666" d="m587.48816 70.338585l109.92651 0l0 59.19422l-109.92651 0l0 -59.19422z" fill-rule="nonzero"/><path shape-rendering="crispEdges" fill="#666666" d="m697.4147 70.338585l109.92651 0l0 59.19422l-109.92651 0l0 -59.19422z" fill-rule="nonzero"/><path shape-rendering="crispEdges" fill="#0b5394" d="m477.56168 129.5328l109.92648 0l0 59.19423l-109.92648 0l0 -59.19423z" fill-rule="nonzero"/><path shape-rendering="crispEdges" fill="#0b5394" d="m587.48816 129.5328l109.92651 0l0 59.19423l-109.92651 0l0 -59.19423z" fill-rule="nonzero"/><path shape-rendering="crispEdges" fill="#0b5394" d="m697.4147 129.5328l109.92651 0l0 59.19423l-109.92651 0l0 -59.19423z" fill-rule="nonzero"/><path shape-rendering="crispEdges" fill="#0b5394" d="m477.56168 188.72704l109.92648 0l0 59.19423l-109.92648 0l0 -59.19423z" fill-rule="nonzero"/><path shape-rendering="crispEdges" fill="#0b5394" d="m587.48816 188.72704l109.92651 0l0 59.19423l-109.92651 0l0 -59.19423z" fill-rule="nonzero"/><path shape-rendering="crispEdges" fill="#0b5394" d="m697.4147 188.72704l109.92651 0l0 59.19423l-109.92651 0l0 -59.19423z" fill-rule="nonzero"/><path stroke="#ffffff" stroke-width="4.0" stroke-linecap="butt" d="m477.56168 68.338585l0 181.58267" fill-rule="nonzero"/><path stroke="#ffffff" stroke-width="4.0" stroke-linecap="butt" d="m587.48816 68.338585l0 181.58267" fill-rule="nonzero"/><path stroke="#ffffff" stroke-width="4.0" stroke-linecap="butt" d="m697.4147 68.338585l0 181.58267" fill-rule="nonzero"/><path stroke="#ffffff" stroke-width="4.0" stroke-linecap="butt" d="m807.3412 68.338585l0 181.58267" fill-rule="nonzero"/><path stroke="#ffffff" stroke-width="4.0" stroke-linecap="butt" d="m475.56168 70.338585l333.7795 0" fill-rule="nonzero"/><path stroke="#ffffff" stroke-width="4.0" stroke-linecap="butt" d="m475.56168 129.5328l333.7795 0" fill-rule="nonzero"/><path stroke="#ffffff" stroke-width="4.0" stroke-linecap="butt" d="m475.56168 188.72704l333.7795 0" fill-rule="nonzero"/><path stroke="#ffffff" stroke-width="4.0" stroke-linecap="butt" d="m475.56168 247.92126l333.7795 0" fill-rule="nonzero"/><path fill="#cfe2f3" d="m378.8832 162.0105l38.37796 0l0 -8.905518l17.811005 17.811035l-17.811005 17.81102l0 -8.905518l-38.37796 0z" fill-rule="evenodd"/><path stroke="#000000" stroke-width="1.0" stroke-linejoin="round" stroke-linecap="butt" d="m378.8832 162.0105l38.37796 0l0 -8.905518l17.811005 17.811035l-17.811005 17.81102l0 -8.905518l-38.37796 0z" fill-rule="evenodd"/></g></svg>