<svg version="1.1" viewBox="0.0 0.0 789.1364829396325 334.81364829396324" fill="none" stroke="none" stroke-linecap="square" stroke-miterlimit="10" xmlns:xlink="http://www.w3.org/1999/xlink" xmlns="http://www.w3.org/2000/svg"><clipPath id="p.0"><path d="m0 0l789.1365 0l0 334.81366l-789.1365 0l0 -334.81366z" clip-rule="nonzero"/></clipPath><g clip-path="url(#p.0)"><path fill="#000000" fill-opacity="0.0" d="m0 0l789.1365 0l0 334.81366l-789.1365 0z" fill-rule="evenodd"/><path shape-rendering="crispEdges" fill="#666666" d="m9.614173 24.144358l111.125984 0l0 59.19423l-111.125984 0l0 -59.19423z" fill-rule="nonzero"/><path shape-rendering="crispEdges" fill="#666666" d="m120.74016 24.144358l111.12598 0l0 59.19423l-111.12598 0l0 -59.19423z" fill-rule="nonzero"/><path shape-rendering="crispEdges" fill="#666666" d="m231.86613 24.144358l111.12599 0l0 59.19423l-111.12599 0l0 -59.19423z" fill-rule="nonzero"/><path shape-rendering="crispEdges" fill="#666666" d="m342.99213 24.144358l111.12598 0l0 59.19423l-111.12598 0l0 -59.19423z" fill-rule="nonzero"/><path shape-rendering="crispEdges" fill="#b7b7b7" d="m9.614173 83.338585l111.125984 0l0 59.19422l-111.125984 0l0 -59.19422z" fill-rule="nonzero"/><path shape-rendering="crispEdges" fill="#0b5394" d="m120.74016 83.338585l111.12598 0l0 59.19422l-111.12598 0l0 -59.19422z" fill-rule="nonzero"/><path shape-rendering="crispEdges" fill="#b7b7b7" d="m231.86613 83.338585l111.12599 0l0 59.19422l-111.12599 0l0 -59.19422z" fill-rule="nonzero"/><path shape-rendering="crispEdges" fill="#0b5394" d="m342.99213 83.338585l111.12598 0l0 59.19422l-111.12598 0l0 -59.19422z" fill-rule="nonzero"/><path shape-rendering="crispEdges" fill="#b7b7b7" d="m9.614173 142.5328l111.125984 0l0 59.19423l-111.125984 0l0 -59.19423z" fill-rule="nonzero"/><path shape-rendering="crispEdges" fill="#0b5394" d="m120.74016 142.5328l111.12598 0l0 59.19423l-111.12598 0l0 -59.19423z" fill-rule="nonzero"/><path shape-rendering="crispEdges" fill="#b7b7b7" d="m231.86613 142.5328l111.12599 0l0 59.19423l-111.12599 0l0 -59.19423z" fill-rule="nonzero"/><path shape-rendering="crispEdges" fill="#0b5394" d="m342.99213 142.5328l111.12598 0l0 59.19423l-111.12598 0l0 -59.19423z" fill-rule="nonzero"/><path shape-rendering="crispEdges" fill="#b7b7b7" d="m9.614173 201.72704l111.125984 0l0 59.19423l-111.125984 0l0 -59.19423z" fill-rule="nonzero"/><path shape-rendering="crispEdges" fill="#0b5394" d="m120.74016 201.72704l111.12598 0l0 59.19423l-111.12598 0l0 -59.19423z" fill-rule="nonzero"/><path shape-rendering="crispEdges" fill="#b7b7b7" d="m231.86613 201.72704l111.12599 0l0 59.19423l-111.12599 0l0 -59.19423z" fill-rule="nonzero"/><path shape-rendering="crispEdges" fill="#0b5394" d="m342.99213 201.72704l111.12598 0l0 59.19423l-111.12598 0l0 -59.19423z" fill-rule="nonzero"/><path shape-rendering="crispEdges" fill="#b7b7b7" d="m9.614173 260.92126l111.125984 0l0 59.194214l-111.125984 0l0 -59.194214z" fill-rule="nonzero"/><path shape-rendering="crispEdges" fill="#0b5394" d="m120.74016 260.92126l111.12598 0l0 59.194214l-111.12598 0l0 -59.194214z" fill-rule="nonzero"/><path shape-rendering="crispEdges" fill="#b7b7b7" d="m231.86613 260.92126l111.12599 0l0 59.194214l-111.12599 0l0 -59.194214z" fill-rule="nonzero"/><path shape-rendering="crispEdges" fill="#0b5394" d="m342.99213 260.92126l111.12598 0l0 59.194214l-111.12598 0l0 -59.194214z" fill-rule="nonzero"/><path stroke="#ffffff" stroke-width="4.0" stroke-linecap="butt" d="m9.614173 22.144358l0 299.97113" fill-rule="nonzero"/><path stroke="#ffffff" stroke-width="4.0" stroke-linecap="butt" d="m120.74016 22.144358l0 299.97113" fill-rule="nonzero"/><path stroke="#ffffff" stroke-width="4.0" stroke-linecap="butt" d="m231.86613 22.144358l0 299.97113" fill-rule="nonzero"/><path stroke="#ffffff" stroke-width="4.0" stroke-linecap="butt" d="m342.99213 22.144358l0 299.97113" fill-rule="nonzero"/><path stroke="#ffffff" stroke-width="4.0" stroke-linecap="butt" d="m454.1181 22.144358l0 299.97113" fill-rule="nonzero"/><path stroke="#ffffff" stroke-width="4.0" stroke-linecap="butt" d="m7.6141734 24.144358l448.50394 0" fill-rule="nonzero"/><path stroke="#ffffff" stroke-width="4.0" stroke-linecap="butt" d="m7.6141734 83.338585l448.50394 0" fill-rule="nonzero"/><path stroke="#ffffff" stroke-width="4.0" stroke-linecap="butt" d="m7.6141734 142.5328l448.50394 0" fill-rule="nonzero"/><path stroke="#ffffff" stroke-width="4.0" stroke-linecap="butt" d="m7.6141734 201.72704l448.50394 0" fill-rule="nonzero"/><path stroke="#ffffff" stroke-width="4.0" stroke-linecap="butt" d="m7.6141734 260.92126l448.50394 0" fill-rule="nonzero"/><path stroke="#ffffff" stroke-width="4.0" stroke-linecap="butt" d="m7.6141734 320.11548l448.50394 0" fill-rule="nonzero"/><path shape-rendering="crispEdges" fill="#666666" d="m552.6142 24.144358l111.12598 0l0 59.19423l-111.12598 0l0 -59.19423z" fill-rule="nonzero"/><path shape-rendering="crispEdges" fill="#666666" d="m663.7402 24.144358l111.12598 0l0 59.19423l-111.12598 0l0 -59.19423z" fill-rule="nonzero"/><path shape-rendering="crispEdges" fill="#0b5394" d="m552.6142 83.338585l111.12598 0l0 59.19422l-111.12598 0l0 -59.19422z" fill-rule="nonzero"/><path shape-rendering="crispEdges" fill="#0b5394" d="m663.7402 83.338585l111.12598 0l0 59.19422l-111.12598 0l0 -59.19422z" fill-rule="nonzero"/><path shape-rendering="crispEdges" fill="#0b5394" d="m552.6142 142.5328l111.12598 0l0 59.19423l-111.12598 0l0 -59.19423z" fill-rule="nonzero"/><path shape-rendering="crispEdges" fill="#0b5394" d="m663.7402 142.5328l111.12598 0l0 59.19423l-111.12598 0l0 -59.19423z" fill-rule="nonzero"/><path shape-rendering="crispEdges" fill="#0b5394" d="m552.6142 201.72704l111.12598 0l0 59.19423l-111.12598 0l0 -59.19423z" fill-rule="nonzero"/><path shape-rendering="crispEdges" fill="#0b5394" d="m663.7402 201.72704l111.12598 0l0 59.19423l-111.12598 0l0 -59.19423z" fill-rule="nonzero"/><path shape-rendering="crispEdges" fill="#0b5394" d="m552.6142 260.92126l111.12598 0l0 59.194214l-111.12598 0l0 -59.194214z" fill-rule="nonzero"/><path shape-rendering="crispEdges" fill="#0b5394" d="m663.7402 260.92126l111.12598 0l0 59.194214l-111.12598 0l0 -59.194214z" fill-rule="nonzero"/><path stroke="#ffffff" stroke-width="4.0" stroke-linecap="butt" d="m552.6142 22.144358l0 299.97113" fill-rule="nonzero"/><path stroke="#ffffff" stroke-width="4.0" stroke-linecap="butt" d="m663.7402 22.144358l0 299.97113" fill-rule="nonzero"/><path stroke="#ffffff" stroke-width="4.0" stroke-linecap="butt" d="m774.86615 22.144358l0 299.97113" fill-rule="nonzero"/><path stroke="#ffffff" stroke-width="4.0" stroke-linecap="butt" d="m550.6142 24.144358l226.25195 0" fill-rule="nonzero"/><path stroke="#ffffff" stroke-width="4.0" stroke-linecap="butt" d="m550.6142 83.338585l226.25195 0" fill-rule="nonzero"/><path stroke="#ffffff" stroke-width="4.0" stroke-linecap="butt" d="m550.6142 142.5328l226.25195 0" fill-rule="nonzero"/><path stroke="#ffffff" stroke-width="4.0" stroke-linecap="butt" d="m550.6142 201.72704l226.25195 0" fill-rule="nonzero"/><path stroke="#ffffff" stroke-width="4.0" stroke-linecap="butt" d="m550.6142 260.92126l226.25195 0" fill-rule="nonzero"/><path stroke="#ffffff" stroke-width="4.0" stroke-linecap="butt" d="m550.6142 320.11548l226.25195 0" fill-rule="nonzero"/><path fill="#cfe2f3" d="m480.437 164.3819l30.362213 0l0 -7.7480316l15.496063 15.496063l-15.496063 15.496063l0 -7.7480316l-30.362213 0z" fill-rule="evenodd"/><path stroke="#000000" stroke-width="1.0" stroke-linejoin="round" stroke-linecap="butt" d="m480.437 164.3819l30.362213 0l0 -7.7480316l15.496063 15.496063l-15.496063 15.496063l0 -7.7480316l-30.362213 0z" fill-rule="evenodd"/></g></svg>