<svg version="1.1" viewBox="0.0 0.0 951.2624671916011 337.997375328084" fill="none" stroke="none" stroke-linecap="square" stroke-miterlimit="10" xmlns:xlink="http://www.w3.org/1999/xlink" xmlns="http://www.w3.org/2000/svg"><clipPath id="p.0"><path d="m0 0l951.26245 0l0 337.99738l-951.26245 0l0 -337.99738z" clip-rule="nonzero"/></clipPath><g clip-path="url(#p.0)"><path fill="#000000" fill-opacity="0.0" d="m0 0l951.26245 0l0 337.99738l-951.26245 0z" fill-rule="evenodd"/><path shape-rendering="crispEdges" fill="#666666" d="m20.417322 36.228348l142.3832 0l0 56.196846l-142.3832 0l0 -56.196846z" fill-rule="nonzero"/><path shape-rendering="crispEdges" fill="#666666" d="m162.80052 36.228348l142.3832 0l0 56.196846l-142.3832 0l0 -56.196846z" fill-rule="nonzero"/><path shape-rendering="crispEdges" fill="#666666" d="m305.18372 36.228348l142.38321 0l0 56.196846l-142.38321 0l0 -56.196846z" fill-rule="nonzero"/><path shape-rendering="crispEdges" fill="#9fc5e8" d="m20.417322 92.42519l142.3832 0l0 56.196846l-142.3832 0l0 -56.196846z" fill-rule="nonzero"/><path shape-rendering="crispEdges" fill="#9fc5e8" d="m162.80052 92.42519l142.3832 0l0 56.196846l-142.3832 0l0 -56.196846z" fill-rule="nonzero"/><path shape-rendering="crispEdges" fill="#9fc5e8" d="m305.18372 92.42519l142.38321 0l0 56.196846l-142.38321 0l0 -56.196846z" fill-rule="nonzero"/><path shape-rendering="crispEdges" fill="#0b5394" d="m20.417322 148.62204l142.3832 0l0 56.196854l-142.3832 0l0 -56.196854z" fill-rule="nonzero"/><path shape-rendering="crispEdges" fill="#0b5394" d="m162.80052 148.62204l142.3832 0l0 56.196854l-142.3832 0l0 -56.196854z" fill-rule="nonzero"/><path shape-rendering="crispEdges" fill="#0b5394" d="m305.18372 148.62204l142.38321 0l0 56.196854l-142.38321 0l0 -56.196854z" fill-rule="nonzero"/><path shape-rendering="crispEdges" fill="#cc4125" d="m20.417322 204.8189l142.3832 0l0 56.196854l-142.3832 0l0 -56.196854z" fill-rule="nonzero"/><path shape-rendering="crispEdges" fill="#cc4125" d="m162.80052 204.8189l142.3832 0l0 56.196854l-142.3832 0l0 -56.196854z" fill-rule="nonzero"/><path shape-rendering="crispEdges" fill="#cc4125" d="m305.18372 204.8189l142.38321 0l0 56.196854l-142.38321 0l0 -56.196854z" fill-rule="nonzero"/><path shape-rendering="crispEdges" fill="#0b5394" d="m20.417322 261.01575l142.3832 0l0 56.19684l-142.3832 0l0 -56.19684z" fill-rule="nonzero"/><path shape-rendering="crispEdges" fill="#0b5394" d="m162.80052 261.01575l142.3832 0l0 56.19684l-142.3832 0l0 -56.19684z" fill-rule="nonzero"/><path shape-rendering="crispEdges" fill="#0b5394" d="m305.18372 261.01575l142.38321 0l0 56.19684l-142.38321 0l0 -56.19684z" fill-rule="nonzero"/><path stroke="#ffffff" stroke-width="4.0" stroke-linecap="butt" d="m20.417322 34.228348l0 284.98425" fill-rule="nonzero"/><path stroke="#ffffff" stroke-width="4.0" stroke-linecap="butt" d="m162.80052 34.228348l0 284.98425" fill-rule="nonzero"/><path stroke="#ffffff" stroke-width="4.0" stroke-linecap="butt" d="m305.18372 34.228348l0 284.98425" fill-rule="nonzero"/><path stroke="#ffffff" stroke-width="4.0" stroke-linecap="butt" d="m447.56693 34.228348l0 284.98425" fill-rule="nonzero"/><path stroke="#ffffff" stroke-width="4.0" stroke-linecap="butt" d="m18.417322 36.228348l431.1496 0" fill-rule="nonzero"/><path stroke="#ffffff" stroke-width="4.0" stroke-linecap="butt" d="m18.417322 92.42519l431.1496 0" fill-rule="nonzero"/><path stroke="#ffffff" stroke-width="4.0" stroke-linecap="butt" d="m18.417322 148.62204l431.1496 0" fill-rule="nonzero"/><path stroke="#ffffff" stroke-width="4.0" stroke-linecap="butt" d="m18.417322 204.8189l431.1496 0" fill-rule="nonzero"/><path stroke="#ffffff" stroke-width="4.0" stroke-linecap="butt" d="m18.417322 261.01575l431.1496 0" fill-rule="nonzero"/><path stroke="#ffffff" stroke-width="4.0" stroke-linecap="butt" d="m18.417322 317.2126l431.1496 0" fill-rule="nonzero"/><path shape-rendering="crispEdges" fill="#666666" d="m513.8373 36.228348l142.38318 0l0 56.196846l-142.38318 0l0 -56.196846z" fill-rule="nonzero"/><path shape-rendering="crispEdges" fill="#666666" d="m656.22046 36.228348l142.38324 0l0 56.196846l-142.38324 0l0 -56.196846z" fill-rule="nonzero"/><path shape-rendering="crispEdges" fill="#666666" d="m798.6037 36.228348l142.38318 0l0 56.196846l-142.38318 0l0 -56.196846z" fill-rule="nonzero"/><path shape-rendering="crispEdges" fill="#0b5394" d="m513.8373 92.42519l142.38318 0l0 56.196846l-142.38318 0l0 -56.196846z" fill-rule="nonzero"/><path shape-rendering="crispEdges" fill="#0b5394" d="m656.22046 92.42519l142.38324 0l0 56.196846l-142.38324 0l0 -56.196846z" fill-rule="nonzero"/><path shape-rendering="crispEdges" fill="#0b5394" d="m798.6037 92.42519l142.38318 0l0 56.196846l-142.38318 0l0 -56.196846z" fill-rule="nonzero"/><path shape-rendering="crispEdges" fill="#0b5394" d="m513.8373 148.62204l142.38318 0l0 56.196854l-142.38318 0l0 -56.196854z" fill-rule="nonzero"/><path shape-rendering="crispEdges" fill="#0b5394" d="m656.22046 148.62204l142.38324 0l0 56.196854l-142.38324 0l0 -56.196854z" fill-rule="nonzero"/><path shape-rendering="crispEdges" fill="#0b5394" d="m798.6037 148.62204l142.38318 0l0 56.196854l-142.38318 0l0 -56.196854z" fill-rule="nonzero"/><path shape-rendering="crispEdges" fill="#9fc5e8" d="m513.8373 204.8189l142.38318 0l0 56.196854l-142.38318 0l0 -56.196854z" fill-rule="nonzero"/><path shape-rendering="crispEdges" fill="#9fc5e8" d="m656.22046 204.8189l142.38324 0l0 56.196854l-142.38324 0l0 -56.196854z" fill-rule="nonzero"/><path shape-rendering="crispEdges" fill="#9fc5e8" d="m798.6037 204.8189l142.38318 0l0 56.196854l-142.38318 0l0 -56.196854z" fill-rule="nonzero"/><path shape-rendering="crispEdges" fill="#cc4125" d="m513.8373 261.01575l142.38318 0l0 56.19684l-142.38318 0l0 -56.19684z" fill-rule="nonzero"/><path shape-rendering="crispEdges" fill="#cc4125" d="m656.22046 261.01575l142.38324 0l0 56.19684l-142.38324 0l0 -56.19684z" fill-rule="nonzero"/><path shape-rendering="crispEdges" fill="#cc4125" d="m798.6037 261.01575l142.38318 0l0 56.19684l-142.38318 0l0 -56.19684z" fill-rule="nonzero"/><path stroke="#ffffff" stroke-width="4.0" stroke-linecap="butt" d="m513.8373 34.228348l0 284.98425" fill-rule="nonzero"/><path stroke="#ffffff" stroke-width="4.0" stroke-linecap="butt" d="m656.22046 34.228348l0 284.98425" fill-rule="nonzero"/><path stroke="#ffffff" stroke-width="4.0" stroke-linecap="butt" d="m798.6037 34.228348l0 284.98425" fill-rule="nonzero"/><path stroke="#ffffff" stroke-width="4.0" stroke-linecap="butt" d="m940.9869 34.228348l0 284.98425" fill-rule="nonzero"/><path stroke="#ffffff" stroke-width="4.0" stroke-linecap="butt" d="m511.83728 36.228348l431.1496 0" fill-rule="nonzero"/><path stroke="#ffffff" stroke-width="4.0" stroke-linecap="butt" d="m511.83728 92.42519l431.1496 0" fill-rule="nonzero"/><path stroke="#ffffff" stroke-width="4.0" stroke-linecap="butt" d="m511.83728 148.62204l431.1496 0" fill-rule="nonzero"/><path stroke="#ffffff" stroke-width="4.0" stroke-linecap="butt" d="m511.83728 204.8189l431.1496 0" fill-rule="nonzero"/><path stroke="#ffffff" stroke-width="4.0" stroke-linecap="butt" d="m511.83728 261.01575l431.1496 0" fill-rule="nonzero"/><path stroke="#ffffff" stroke-width="4.0" stroke-linecap="butt" d="m511.83728 317.2126l431.1496 0" fill-rule="nonzero"/><path fill="#cfe2f3" d="m462.5223 167.82283l28.094482 0l0 -8.897629l17.795288 17.795273l-17.795288 17.795273l0 -8.897644l-28.094482 0z" fill-rule="evenodd"/><path stroke="#000000" stroke-width="1.0" stroke-linejoin="round" stroke-linecap="butt" d="m462.5223 167.82283l28.094482 0l0 -8.897629l17.795288 17.795273l-17.795288 17.795273l0 -8.897644l-28.094482 0z" fill-rule="evenodd"/></g></svg>