<?xml version="1.0" encoding="utf-8"?>
<!-- Generator: Adobe Illustrator 27.7.0, SVG Export Plug-In . SVG Version: 6.00 Build 0)  -->
<svg version="1.1" id="Layer_1" xmlns="http://www.w3.org/2000/svg" xmlns:xlink="http://www.w3.org/1999/xlink" x="0px" y="0px"
	 viewBox="0 0 1024 1024" style="enable-background:new 0 0 1024 1024;" xml:space="preserve">
<style type="text/css">
	.st0{fill:#509390;}
	.st1{fill:#262626;stroke:#FCF7E5;stroke-width:4;stroke-miterlimit:10;}
	.st2{fill:#2D48CB;}
	.st3{fill:#3D21A7;}
	.st4{fill:#43177A;}
	.st5{fill:#770F34;}
	.st6{fill:#C24E0A;}
	.st7{stroke:#FCF7E5;stroke-width:3;stroke-miterlimit:10;}
	.st8{fill:#1B6362;}
	.st9{fill:#FCF7E5;}
	.st10{font-family:'Montserrat-SemiBold';}
	.st11{font-size:32px;}
	.st12{font-family:'Montserrat-Regular';}
	.st13{font-size:30px;}
	.st14{fill:#DDDDDD;}
</style>
<g id="Background">
	<rect x="513.4" y="83.8" class="st0" width="304.4" height="81.5"/>
	<polygon class="st1" points="520.7,105.3 750.8,500.5 980.9,895.7 520.7,895.7 60.6,895.7 290.7,500.5 	"/>
	<path class="st2" d="M96.8,795.3h848.7l46,79.8c0.7,2,2.9,8.7-0.1,15.6c-3.5,8.3-12.9,13.6-23.4,13c-297.9,0-595.7,0-893.6,0
		c-9.4-0.1-19.6-4.4-22.3-13.1c-3.1-9.9,1.2-19.3,1.8-20.7C69.5,845.3,81.1,819.9,96.8,795.3z"/>
	<polygon class="st3" points="860.4,647.2 181.8,647.3 117.5,758.8 923.9,757.8 	"/>
	<polygon class="st4" points="777.9,503.8 264.3,503.8 200.6,614.6 841.1,613.7 	"/>
	<polygon class="st5" points="695,359.6 347.2,359.6 283.5,470.3 758.2,469.5 	"/>
	<polygon class="st6" points="614.7,218.4 428.4,218.4 364.7,329.2 677.9,328.3 	"/>
	<path class="st7" d="M1059.9,994.3"/>
	<path class="st7" d="M521.1,57"/>
	<path class="st7" d="M-17.6,994.3"/>
	<path class="st7" d="M521.1,57"/>
	<path class="st8" d="M507.6,80.7c6.1-10.6,21.3-10.6,27.4,0l24,41.5l37.7,65.3h-75.4h-75.4l37.7-65.3L507.6,80.7z"/>
	
		<image style="overflow:visible;enable-background:new    ;" width="588" height="273" xlink:href="../Graphics/Version control.png"  transform="matrix(1 0 0 1 -404.423 2605.4683)">
	</image>
</g>
<g id="Text_and_Icons">
	<text transform="matrix(1 0 0 1 425.6749 319.838)" class="st9 st10 st11">REPORTING</text>
	<text transform="matrix(1 0 0 1 469.2646 410.9271)" class="st9 st10 st11">ANALYSIS &amp;</text>
	<text transform="matrix(1 0 0 1 437.3646 449.3271)" class="st9 st10 st11">VISUALIZATION</text>
	<text transform="matrix(1 0 0 1 386.9 575.5742)" class="st9 st10 st11">CODING NOTEBOOKS</text>
	<text transform="matrix(1 0 0 1 462.6001 696.9502)" class="st9 st10 st11">VERSION CONTROL /</text>
	<text transform="matrix(1 0 0 1 434.4001 735.3502)" class="st9 st10 st11">PROJECT MANAGEMENT</text>
	<text transform="matrix(1 0 0 1 528.7224 841.5613)" class="st9 st10 st11">DATA</text>
	<text transform="matrix(1 0 0 1 428.9464 876.0314)" class="st9 st12 st13">Original or Secondary </text>
	<g>
		<path class="st9" d="M350.8,530.7h-30.6c-1.4,0-2.5,1.1-2.5,2.5v13.4c0,1.4,1.1,2.5,2.5,2.5h30.6c1.4,0,2.5-1.1,2.5-2.5v-13.4
			C353.3,531.8,352.2,530.7,350.8,530.7z M348,543.4c0,0.3-0.3,0.6-0.6,0.6h-23.9c-0.3,0-0.6-0.3-0.6-0.6v-7c0-0.3,0.3-0.6,0.6-0.6
			h23.9c0.3,0,0.6,0.3,0.6,0.6V543.4z"/>
		<path class="st9" d="M350.6,588.6h-12.3c-1.3,0-2.3,1.1-2.3,2.3v0.4c0,1.3,1.1,2.3,2.3,2.3h12.3c1.3,0,2.3-1.1,2.3-2.3v-0.4
			C352.9,589.6,351.9,588.6,350.6,588.6z"/>
		<path class="st9" d="M337.5,552.8c-1-0.2-1.9,0.3-2.2,1.3l-7,27.9c-0.2,1,0.3,1.9,1.3,2.2s1.9-0.3,2.2-1.3l7-27.9
			C339,554,338.4,553.1,337.5,552.8z"/>
		<path class="st9" d="M343.8,557.4c-0.7-0.7-1.8-0.8-2.5-0.1s-0.8,1.8-0.1,2.5l8,8.7l-8.2,8.7c-0.7,0.7-0.7,1.8,0.1,2.5
			c0.7,0.7,1.8,0.7,2.5-0.1l9.2-9.7c0.2-0.2,0.3-0.5,0.4-0.7c0.3-0.6,0.2-1.4-0.3-2L343.8,557.4z"/>
		<path class="st9" d="M326.3,556.3c-0.7-0.7-1.8-0.7-2.5,0.1l-9.2,9.7c-0.2,0.2-0.3,0.5-0.4,0.7c-0.3,0.6-0.2,1.4,0.3,2l9,9.9
			c0.7,0.7,1.8,0.8,2.5,0.1s0.8-1.8,0.1-2.5l-8-8.7l8.2-8.7C327.1,558.1,327,557,326.3,556.3z"/>
		<path class="st9" d="M360.9,520.1h-56.3c-2.4,0-4.4,2-4.4,4.4v6.3h-2.6c-1.3,0-2.3,1.1-2.3,2.3v0.4c0,1.3,1.1,2.3,2.3,2.3h2.6v9.3
			h-3c-1.3,0-2.3,1.1-2.3,2.3v0.4c0,1.3,1.1,2.3,2.3,2.3h3v9.4h-3c-1.3,0-2.3,1.1-2.3,2.3v0.4c0,1.3,1.1,2.3,2.3,2.3h3v9.4h-3
			c-1.3,0-2.3,1.1-2.3,2.3v0.4c0,1.3,1.1,2.3,2.3,2.3h3v9.4h-2.6c-1.3,0-2.3,1.1-2.3,2.3v0.4c0,1.3,1.1,2.3,2.3,2.3h2.6v6.4
			c0,2.4,2,4.4,4.4,4.4h56.3c2.4,0,4.4-2,4.4-4.4v-75.6C365.3,522,363.3,520.1,360.9,520.1z M360.2,598.3c0,0.5-0.4,0.9-0.9,0.9h-53
			c-0.5,0-0.9-0.4-0.9-0.9v-4.7h3c1.3,0,2.3-1.1,2.3-2.3v-0.4c0-1.3-1.1-2.3-2.3-2.3h-3v-9.4h2.6c1.3,0,2.3-1.1,2.3-2.3v-0.4
			c0-1.3-1.1-2.3-2.3-2.3h-2.6v-9.4h2.6c1.3,0,2.3-1.1,2.3-2.3V562c0-1.3-1.1-2.3-2.3-2.3h-2.6v-9.4h2.6c1.3,0,2.3-1.1,2.3-2.3v-0.4
			c0-1.3-1.1-2.3-2.3-2.3h-2.6V536h3c1.3,0,2.3-1.1,2.3-2.3v-0.4c0-1.3-1.1-2.3-2.3-2.3h-3v-5c0-0.5,0.4-0.9,0.9-0.9h53
			c0.5,0,0.9,0.4,0.9,0.9V598.3z"/>
	</g>
	<g>
		<path class="st9" d="M378.6,413.3h-15.3c-0.6,0-1.2-0.5-1.2-1.2l0,0c0-0.6,0.5-1.2,1.2-1.2h15.3c0.6,0,1.2,0.5,1.2,1.2l0,0
			C379.8,412.7,379.2,413.3,378.6,413.3z"/>
		<path class="st9" d="M372.9,419.6h-9.6c-0.6,0-1.2-0.5-1.2-1.2l0,0c0-0.6,0.5-1.2,1.2-1.2h9.6c0.6,0,1.2,0.5,1.2,1.2l0,0
			C374.1,419,373.5,419.6,372.9,419.6z"/>
		<path class="st9" d="M372.9,425.8h-9.6c-0.6,0-1.2-0.5-1.2-1.2l0,0c0-0.6,0.5-1.2,1.2-1.2h9.6c0.6,0,1.2,0.5,1.2,1.2l0,0
			C374.1,425.3,373.5,425.8,372.9,425.8z"/>
		<path class="st9" d="M372.9,432.1h-9.6c-0.6,0-1.2-0.5-1.2-1.2l0,0c0-0.6,0.5-1.2,1.2-1.2h9.6c0.6,0,1.2,0.5,1.2,1.2l0,0
			C374.1,431.6,373.5,432.1,372.9,432.1z"/>
		<path class="st9" d="M390.5,426.1h-9.6c-0.6,0-1.2-0.5-1.2-1.2l0,0c0-0.6,0.5-1.2,1.2-1.2h9.6c0.6,0,1.2,0.5,1.2,1.2l0,0
			C391.7,425.6,391.2,426.1,390.5,426.1z"/>
		<path class="st9" d="M390.5,446.6h-9.6c-0.6,0-1.2-0.5-1.2-1.2l0,0c0-0.6,0.5-1.2,1.2-1.2h9.6c0.6,0,1.2,0.5,1.2,1.2l0,0
			C391.7,446.1,391.2,446.6,390.5,446.6z"/>
		<path class="st9" d="M391.7,425v20.4c0,0.6-0.5,1.2-1.2,1.2l0,0c-0.6,0-1.2-0.5-1.2-1.2V425c0-0.6,0.5-1.2,1.2-1.2l0,0
			C391.2,423.8,391.7,424.3,391.7,425z"/>
		<path class="st9" d="M405.8,405h-9.6c-0.6,0-1.2-0.5-1.2-1.2l0,0c0-0.6,0.5-1.2,1.2-1.2h9.6c0.6,0,1.2,0.5,1.2,1.2l0,0
			C406.9,404.4,406.4,405,405.8,405z"/>
		<path class="st9" d="M405.8,446.6h-9.6c-0.6,0-1.2-0.5-1.2-1.2l0,0c0-0.6,0.5-1.2,1.2-1.2h9.6c0.6,0,1.2,0.5,1.2,1.2l0,0
			C406.9,446.1,406.4,446.6,405.8,446.6z"/>
		<path class="st9" d="M406.9,403.8v41.6c0,0.6-0.5,1.2-1.2,1.2l0,0c-0.6,0-1.2-0.5-1.2-1.2v-41.6c0-0.6,0.5-1.2,1.2-1.2l0,0
			C406.4,402.6,406.9,403.1,406.9,403.8z"/>
		<path class="st9" d="M420.8,415.9h-9.6c-0.6,0-1.2-0.5-1.2-1.2l0,0c0-0.6,0.5-1.2,1.2-1.2h9.6c0.6,0,1.2,0.5,1.2,1.2l0,0
			C422,415.4,421.4,415.9,420.8,415.9z"/>
		<path class="st9" d="M420.8,446.6h-9.6c-0.6,0-1.2-0.5-1.2-1.2l0,0c0-0.6,0.5-1.2,1.2-1.2h9.6c0.6,0,1.2,0.5,1.2,1.2l0,0
			C422,446.1,421.4,446.6,420.8,446.6z"/>
		<path class="st9" d="M422,414.7v30.7c0,0.6-0.5,1.2-1.2,1.2l0,0c-0.6,0-1.2-0.5-1.2-1.2v-30.7c0-0.6,0.5-1.2,1.2-1.2l0,0
			C421.4,413.6,422,414.1,422,414.7z"/>
		<path class="st9" d="M374.8,389.6H370c-0.6,0-1.2-0.5-1.2-1.2l0,0c0-0.6,0.5-1.2,1.2-1.2h4.8c0.6,0,1.2,0.5,1.2,1.2l0,0
			C375.9,389.1,375.4,389.6,374.8,389.6z"/>
		<path class="st9" d="M366.7,387.5l-3.4,3.4c-0.5,0.5-1.2,0.5-1.7,0l0,0c-0.5-0.5-0.5-1.2,0-1.7l3.4-3.4c0.5-0.5,1.2-0.5,1.7,0l0,0
			C367.1,386.3,367.1,387,366.7,387.5z"/>
		<path class="st9" d="M365,390.8l-3.4-3.4c-0.5-0.5-0.5-1.2,0-1.7l0,0c0.5-0.5,1.2-0.5,1.7,0l3.4,3.4c0.5,0.5,0.5,1.2,0,1.7l0,0
			C366.2,391.3,365.5,391.3,365,390.8z"/>
		<path class="st9" d="M427,395.8h-70.2c-0.6,0-1.2-0.5-1.2-1.2l0,0c0-0.6,0.5-1.2,1.2-1.2H427c0.6,0,1.2,0.5,1.2,1.2l0,0
			C428.2,395.3,427.7,395.8,427,395.8z"/>
		<path class="st9" d="M427,383.7h-70.2c-0.6,0-1.2-0.5-1.2-1.2l0,0c0-0.6,0.5-1.2,1.2-1.2H427c0.6,0,1.2,0.5,1.2,1.2l0,0
			C428.2,383.2,427.7,383.7,427,383.7z"/>
		<path class="st9" d="M427,454h-70.2c-0.6,0-1.2-0.5-1.2-1.2l0,0c0-0.6,0.5-1.2,1.2-1.2H427c0.6,0,1.2,0.5,1.2,1.2l0,0
			C428.2,453.5,427.7,454,427,454z"/>
		<path class="st9" d="M358,382.6v70.2c0,0.6-0.5,1.2-1.2,1.2l0,0c-0.6,0-1.2-0.5-1.2-1.2v-70.2c0-0.6,0.5-1.2,1.2-1.2l0,0
			C357.5,381.5,358,382,358,382.6z"/>
		<path class="st9" d="M428.2,382.6v70.2c0,0.6-0.5,1.2-1.2,1.2l0,0c-0.6,0-1.2-0.5-1.2-1.2v-70.2c0-0.6,0.5-1.2,1.2-1.2l0,0
			C427.7,381.5,428.2,382,428.2,382.6z"/>
	</g>
	<g>
		<path class="st9" d="M509.4,271.9h-10.3c-0.2,0-0.4,0.2-0.4,0.4v9.7c0,0.2,0.2,0.4,0.4,0.4h10.3c0.2,0,0.4-0.2,0.4-0.4v-9.7
			C509.8,272.1,509.6,271.9,509.4,271.9z M509,281.6h-9.6v-9h9.6V281.6z"/>
		<path class="st9" d="M536,230.8h-36.9c-0.2,0-0.4,0.2-0.4,0.4v9.7c0,0.2,0.2,0.4,0.4,0.4H536c0.2,0,0.4-0.2,0.4-0.4v-9.7
			C536.4,231,536.2,230.8,536,230.8z M535.7,240.5h-36.2v-9h36.2V240.5z"/>
		<path class="st9" d="M538.8,225.8h-42.9c-0.7,0-1.2,0.5-1.2,1.2v59.6c0,0.7,0.5,1.2,1.2,1.2h42.9c0.7,0,1.2-0.5,1.2-1.2V227
			C540,226.3,539.5,225.8,538.8,225.8z M538.5,285.7c0,0.4-0.3,0.7-0.7,0.7H497c-0.4,0-0.7-0.3-0.7-0.7v-57.5c0-0.4,0.3-0.7,0.7-0.7
			h40.8c0.4,0,0.7,0.3,0.7,0.7V285.7z"/>
		<rect x="499" y="244.1" class="st9" width="24.4" height="0.7"/>
		<rect x="525.9" y="244.1" class="st9" width="10.1" height="0.7"/>
		<rect x="499" y="248.4" class="st9" width="24.4" height="0.7"/>
		<rect x="525.9" y="248.4" class="st9" width="10.1" height="0.7"/>
		<rect x="499.1" y="252.3" class="st9" width="24.4" height="0.7"/>
		<rect x="526" y="252.3" class="st9" width="10.1" height="0.7"/>
		<rect x="499.1" y="256.7" class="st9" width="24.4" height="0.7"/>
		<rect x="526" y="256.7" class="st9" width="10.1" height="0.7"/>
		<rect x="499" y="261.1" class="st9" width="24.4" height="0.7"/>
		<rect x="525.9" y="261.1" class="st9" width="10.1" height="0.7"/>
		<rect x="499.1" y="265" class="st9" width="24.4" height="0.7"/>
		<rect x="526" y="265" class="st9" width="10.1" height="0.7"/>
		<rect x="499.1" y="268.9" class="st9" width="24.4" height="0.7"/>
		<rect x="526" y="268.9" class="st9" width="10.1" height="0.7"/>
		<rect x="511.5" y="272.8" class="st9" width="24.4" height="0.7"/>
		<rect x="511.5" y="276.9" class="st9" width="24.4" height="0.7"/>
		<rect x="511.5" y="281.2" class="st9" width="24.4" height="0.7"/>
	</g>
	<g>
		<path class="st9" d="M405.7,727.1c-3.4,0-6.2,2.1-7.3,5.1h-1.2l-17.9-17.9c1.1-0.9,1.9-2.1,2.4-3.4c0.1,0,0.3,0,0.4,0h16.8
			c1.1,3,3.9,5.1,7.3,5.1c4.3,0,7.7-3.5,7.7-7.7c0-4.3-3.5-7.7-7.7-7.7c-3.4,0-6.2,2.1-7.3,5.1h-16.8c-0.1,0-0.3,0-0.4,0
			c-1.1-3-3.9-5.2-7.3-5.2s-6.2,2.1-7.3,5.1h-17c-0.5-1.4-1.4-2.6-2.6-3.5l17.5-17.5h33.4c1.1,3,3.9,5.1,7.3,5.1
			c4.3,0,7.7-3.5,7.7-7.7c0-4.3-3.5-7.7-7.7-7.7c-3.4,0-6.2,2.1-7.3,5.1h-34.3c-0.7,0-1.3,0.3-1.8,0.7c-0.2,0.1-0.4,0.2-0.5,0.4
			l-19.7,19.7c-0.1,0.1-0.1,0.2-0.2,0.2c-2.9,0.4-5.3,2.4-6.3,5.1c-0.1,0-0.3,0-0.4,0h-15.5V693c0-0.6-0.2-1.1-0.6-1.5l-16.4-16.9
			c-0.4-0.4-1-0.6-1.5-0.6h-29.5c-2.5,0-4.5,2-4.5,4.5v61.6c0,1.2,1,2.1,2.1,2.1h48.2c1.2,0,2.1-1,2.1-2.1V711h15.5
			c0.1,0,0.3,0,0.4,0c1.1,3,3.9,5.2,7.3,5.2s6.2-2.1,7.3-5.1h17c1,2.8,3.6,4.9,6.7,5.1c0.1,0.1,0.1,0.1,0.2,0.2l20,20
			c0.5,0.7,1.2,1.1,2.1,1.1h2.3c1.1,3,3.9,5.1,7.3,5.1c4.3,0,7.7-3.5,7.7-7.7C413.4,730.6,410,727.1,405.7,727.1z M304.2,684l6.1,6
			h-6.1V684z M314.3,737.1h-41.7v-57.4h25.8v14.6c0,0.8,0.7,1.5,1.5,1.5h14.4L314.3,737.1L314.3,737.1z M406.2,705.9
			c1.4,0,2.5,1.1,2.5,2.5s-1.1,2.5-2.5,2.5s-2.5-1.1-2.5-2.5S404.8,705.9,406.2,705.9z M405.7,679.7c1.4,0,2.5,1.1,2.5,2.5
			s-1.1,2.5-2.5,2.5s-2.5-1.1-2.5-2.5S404.3,679.7,405.7,679.7z M342.9,710.9c-1.4,0-2.5-1.1-2.5-2.5s1.1-2.5,2.5-2.5
			s2.5,1.1,2.5,2.5C345.4,709.8,344.2,710.9,342.9,710.9z M371.9,708.4c0-1.4,1.1-2.5,2.5-2.5s2.5,1.1,2.5,2.5s-1.1,2.5-2.5,2.5
			S371.9,709.8,371.9,708.4z M405.7,737.3c-1.4,0-2.5-1.1-2.5-2.5s1.1-2.5,2.5-2.5s2.5,1.1,2.5,2.5S407.1,737.3,405.7,737.3z"/>
		<path class="st9" d="M288,724.4c-0.1,0-0.2,0-0.3,0c0-0.3,0-0.9,0.1-1.2c0.1-1.2,0.3-2.8-0.4-4.5c-0.4-0.9-0.9-1.7-1.7-2.4
			c0.9-0.8,1.5-1.7,1.8-2.7c0.6-1.7,0.4-3.3,0.2-4.5c-0.1-0.4-0.1-0.9-0.1-1.2c0.1,0,0.2,0,0.3,0c1.4,0,2.5-1.1,2.5-2.5
			s-1.1-2.5-2.5-2.5c-0.3,0-0.5,0-0.7,0.1c-1.3,0.2-2.4,0.8-3.2,1.7c-1.4,1.7-1.2,3.6-1,5.1c0.1,0.9,0.2,1.6,0,2.2
			c-0.2,0.7-1,1.3-2.2,1.8c-1.4,0-2.4,1.2-2.4,2.5c0,1.4,1.1,2.5,2.5,2.5c0,0,0,0,0.1,0c1.1,0.5,1.8,1,2,1.6s0.1,1.3,0.1,2.2
			c-0.2,1.4-0.4,3.4,1.1,5.1c0.8,0.9,1.9,1.4,3.2,1.6c0.2,0.1,0.5,0.1,0.7,0.1c1.4,0,2.5-1.2,2.4-2.6
			C290.6,725.5,289.4,724.4,288,724.4z"/>
		<path class="st9" d="M298.7,702.9c-1.4,0-2.5,1.2-2.4,2.6c0,1.4,1.2,2.5,2.6,2.4c0.1,0,0.2,0,0.3,0c0,0.3,0,0.9-0.1,1.2
			c-0.1,1.2-0.3,2.8,0.4,4.5c0.4,0.9,0.9,1.7,1.7,2.4c-0.9,0.8-1.5,1.7-1.8,2.7c-0.6,1.7-0.4,3.3-0.2,4.5c0.1,0.4,0.1,0.9,0.1,1.2
			c-0.1,0-0.2,0-0.3,0c-1.4,0-2.5,1.1-2.5,2.5s1.1,2.5,2.5,2.5c0.3,0,0.5,0,0.7-0.1c1.3-0.2,2.4-0.8,3.2-1.7c1.4-1.7,1.2-3.6,1-5.1
			c-0.1-0.9-0.2-1.6,0-2.2c0.2-0.7,1-1.3,2.2-1.8c1.4,0,2.4-1.2,2.4-2.5c0-1.4-1.1-2.5-2.5-2.5c0,0,0,0-0.1,0c-1.1-0.5-1.8-1-2-1.6
			s-0.1-1.3-0.1-2.2c0.2-1.4,0.4-3.4-1.1-5.1c-0.8-0.9-1.9-1.4-3.2-1.6C299.2,702.9,298.9,702.9,298.7,702.9z"/>
	</g>
	<g>
		<g>
			<g>
				<g id="Layer_1-2">
					<g>
						<g>
							<path class="st14" d="M385.2,893.7H278.5c-0.4,0-0.8-0.3-0.8-0.6v-87.9c0-0.3,0.3-0.6,0.8-0.6h106.7c0.4,0,0.8,0.3,0.8,0.6
								v87.9C386,893.5,385.6,893.7,385.2,893.7z M279.2,892.5h105.2v-71.6H279.2V892.5z M279.2,819.7h105.2v-13.9H279.2V819.7z
								 M370.1,885.9h-76.5c-0.4,0-0.8-0.3-0.8-0.6v-57.9c0-0.3,0.3-0.6,0.8-0.6h76.5c0.4,0,0.8,0.3,0.8,0.6v57.9
								C370.8,885.6,370.5,885.9,370.1,885.9z M329.9,884.6h39.5v-45.1h-39.5V884.6z M304.9,884.6h23.4v-45.1h-23.4V884.6z
								 M294.4,884.6h9v-45.1h-9V884.6z M329.9,838.2h39.5V828h-39.5V838.2z M304.9,838.2h23.4V828h-23.4V838.2z M294.4,838.2h9V828
								h-9V838.2z"/>
						</g>
					</g>
				</g>
			</g>
			<path class="st9" d="M385.1,805.9H278.5c-0.5,0-0.9-0.4-0.9-0.9l0,0c0-0.5,0.4-0.9,0.9-0.9h106.6c0.5,0,0.9,0.4,0.9,0.9l0,0
				C386,805.5,385.6,805.9,385.1,805.9z"/>
			<path class="st9" d="M303.4,814.6h-6.7c-0.5,0-0.9-0.4-0.9-0.9l0,0c0-0.5,0.4-0.9,0.9-0.9h6.7c0.5,0,0.9,0.4,0.9,0.9l0,0
				C304.3,814.2,303.9,814.6,303.4,814.6z"/>
			<path class="st9" d="M385.1,821.4H278.5c-0.5,0-0.9-0.4-0.9-0.9l0,0c0-0.5,0.4-0.9,0.9-0.9h106.6c0.5,0,0.9,0.4,0.9,0.9l0,0
				C386,821,385.6,821.4,385.1,821.4z"/>
			<path class="st9" d="M370,828.5h-76.5c-0.5,0-0.9-0.4-0.9-0.9l0,0c0-0.5,0.4-0.9,0.9-0.9H370c0.5,0,0.9,0.4,0.9,0.9l0,0
				C370.8,828.1,370.5,828.5,370,828.5z"/>
			<path class="st9" d="M370.1,840h-76.5c-0.5,0-0.9-0.4-0.9-0.9l0,0c0-0.5,0.4-0.9,0.9-0.9h76.5c0.5,0,0.9,0.4,0.9,0.9l0,0
				C371,839.6,370.6,840,370.1,840z"/>
			<path class="st9" d="M370.1,886.4h-76.5c-0.5,0-0.9-0.4-0.9-0.9l0,0c0-0.5,0.4-0.9,0.9-0.9h76.5c0.5,0,0.9,0.4,0.9,0.9l0,0
				C371,886,370.6,886.4,370.1,886.4z"/>
			<path class="st9" d="M385.1,894.2H278.6c-0.5,0-0.9-0.4-0.9-0.9l0,0c0-0.5,0.4-0.9,0.9-0.9h106.6c0.5,0,0.9,0.4,0.9,0.9l0,0
				C386,893.8,385.6,894.2,385.1,894.2z"/>
			<path class="st9" d="M279.4,805.4v87.9c0,0.5-0.4,0.9-0.9,0.9l0,0c-0.5,0-0.9-0.4-0.9-0.9v-87.9c0-0.5,0.4-0.9,0.9-0.9l0,0
				C279,804.6,279.4,805,279.4,805.4z"/>
			<path class="st9" d="M386.2,805.2v87.9c0,0.5-0.4,0.9-0.9,0.9l0,0c-0.5,0-0.9-0.4-0.9-0.9v-87.9c0-0.5,0.4-0.9,0.9-0.9l0,0
				C385.8,804.3,386.2,804.7,386.2,805.2z"/>
			<path class="st9" d="M294.3,828v57.5c0,0.5-0.4,0.9-0.9,0.9l0,0c-0.5,0-0.9-0.4-0.9-0.9V828c0-0.5,0.4-0.9,0.9-0.9l0,0
				C294,827.2,294.3,827.6,294.3,828z"/>
			<path class="st9" d="M305.1,828v57.5c0,0.5-0.4,0.9-0.9,0.9l0,0c-0.5,0-0.9-0.4-0.9-0.9V828c0-0.5,0.4-0.9,0.9-0.9l0,0
				C304.7,827.2,305.1,827.6,305.1,828z"/>
			<path class="st9" d="M330.1,828v57.5c0,0.5-0.4,0.9-0.9,0.9l0,0c-0.5,0-0.9-0.4-0.9-0.9V828c0-0.5,0.4-0.9,0.9-0.9l0,0
				C329.7,827.2,330.1,827.6,330.1,828z"/>
			<path class="st9" d="M371.1,827.6v57.5c0,0.5-0.4,0.9-0.9,0.9l0,0c-0.5,0-0.9-0.4-0.9-0.9v-57.5c0-0.5,0.4-0.9,0.9-0.9l0,0
				C370.7,826.7,371.1,827.1,371.1,827.6z"/>
			<path class="st9" d="M293.2,812l-4.7,4.7c-0.3,0.3-0.9,0.3-1.2,0l0,0c-0.3-0.3-0.3-0.9,0-1.2l4.7-4.7c0.3-0.3,0.9-0.3,1.2,0l0,0
				C293.6,811.1,293.6,811.6,293.2,812z"/>
			<path class="st9" d="M292.2,816.9l-4.7-4.7c-0.3-0.3-0.3-0.9,0-1.2l0,0c0.3-0.3,0.9-0.3,1.2,0l4.7,4.7c0.3,0.3,0.3,0.9,0,1.2l0,0
				C293.1,817.2,292.5,817.2,292.2,816.9z"/>
		</g>
		<path class="st9" d="M383.7,808.3H279.9c-1.4,0-2.5-1.1-2.5-2.5l0,0c0-1.4,1.1-2.5,2.5-2.5h103.8c1.4,0,2.5,1.1,2.5,2.5l0,0
			C386.2,807.2,385.1,808.3,383.7,808.3z"/>
		<path class="st9" d="M383.9,895.7H280c-1.4,0-2.5-1.1-2.5-2.5l0,0c0-1.4,1.1-2.5,2.5-2.5h103.8c1.4,0,2.5,1.1,2.5,2.5l0,0
			C386.3,894.6,385.2,895.7,383.9,895.7z"/>
		<path class="st9" d="M281.9,805.8v87.4c0,1.4-1.1,2.5-2.5,2.5l0,0c-1.4,0-2.5-1.1-2.5-2.5v-87.4c0-1.4,1.1-2.5,2.5-2.5l0,0
			C280.8,803.3,281.9,804.4,281.9,805.8z"/>
		<path class="st9" d="M386.9,805.8v87.4c0,1.4-1.1,2.5-2.5,2.5l0,0c-1.4,0-2.5-1.1-2.5-2.5v-87.4c0-1.4,1.1-2.5,2.5-2.5l0,0
			C385.8,803.3,386.9,804.4,386.9,805.8z"/>
	</g>
	<g>
		<path class="st9" d="M519.5,130.7h-27.1c-0.4,0-0.8-0.4-0.8-0.8l0,0c0-0.4,0.4-0.8,0.8-0.8h27.1c0.4,0,0.8,0.4,0.8,0.8l0,0
			C520.3,130.3,519.9,130.7,519.5,130.7z"/>
		<path class="st9" d="M519.5,141.3h-27.1c-0.4,0-0.8-0.4-0.8-0.8l0,0c0-0.4,0.4-0.8,0.8-0.8h27.1c0.4,0,0.8,0.4,0.8,0.8l0,0
			C520.3,140.9,519.9,141.3,519.5,141.3z"/>
		<path class="st9" d="M519.5,151.5h-27.1c-0.4,0-0.8-0.4-0.8-0.8l0,0c0-0.4,0.4-0.8,0.8-0.8h27.1c0.4,0,0.8,0.4,0.8,0.8l0,0
			C520.3,151.2,519.9,151.5,519.5,151.5z"/>
		<path class="st9" d="M519.5,161.8h-27.1c-0.4,0-0.8-0.4-0.8-0.8l0,0c0-0.4,0.4-0.8,0.8-0.8h27.1c0.4,0,0.8,0.4,0.8,0.8l0,0
			C520.3,161.4,519.9,161.8,519.5,161.8z"/>
		<path class="st9" d="M493.1,130.1V161c0,0.4-0.4,0.8-0.8,0.8l0,0c-0.4,0-0.8-0.4-0.8-0.8v-30.9c0-0.4,0.4-0.8,0.8-0.8l0,0
			C492.8,129.3,493.1,129.7,493.1,130.1z"/>
		<path class="st9" d="M520.3,129.9v30.9c0,0.4-0.4,0.8-0.8,0.8l0,0c-0.4,0-0.8-0.4-0.8-0.8v-30.9c0-0.4,0.4-0.8,0.8-0.8l0,0
			C519.9,129.1,520.3,129.4,520.3,129.9z"/>
		<g>
			<path class="st9" d="M499.2,134.4h-1.8c-0.4,0-0.8,0.4-0.8,0.8l0,0c0,0.4,0.4,0.8,0.8,0.8h1.8c0.4,0,0.8-0.4,0.8-0.8l0,0
				C500,134.7,499.6,134.4,499.2,134.4z"/>
			<path class="st9" d="M504.1,134.4h-1.8c-0.4,0-0.8,0.4-0.8,0.8l0,0c0,0.4,0.4,0.8,0.8,0.8h1.8c0.4,0,0.8-0.4,0.8-0.8l0,0
				C504.9,134.7,504.5,134.4,504.1,134.4z"/>
			<path class="st9" d="M509.2,134.4h-1.8c-0.4,0-0.8,0.4-0.8,0.8l0,0c0,0.4,0.4,0.8,0.8,0.8h1.8c0.4,0,0.8-0.4,0.8-0.8l0,0
				C510,134.7,509.6,134.4,509.2,134.4z"/>
			<path class="st9" d="M514.4,134.4h-1.8c-0.4,0-0.8,0.4-0.8,0.8l0,0c0,0.4,0.4,0.8,0.8,0.8h1.8c0.4,0,0.8-0.4,0.8-0.8l0,0
				C515.2,134.7,514.9,134.4,514.4,134.4z"/>
		</g>
		<g>
			<path class="st9" d="M499.2,144.8h-1.8c-0.4,0-0.8,0.4-0.8,0.8l0,0c0,0.4,0.4,0.8,0.8,0.8h1.8c0.4,0,0.8-0.4,0.8-0.8l0,0
				C500,145.2,499.6,144.8,499.2,144.8z"/>
			<path class="st9" d="M504.1,144.8h-1.8c-0.4,0-0.8,0.4-0.8,0.8l0,0c0,0.4,0.4,0.8,0.8,0.8h1.8c0.4,0,0.8-0.4,0.8-0.8l0,0
				C504.9,145.2,504.5,144.8,504.1,144.8z"/>
			<path class="st9" d="M509.2,144.8h-1.8c-0.4,0-0.8,0.4-0.8,0.8l0,0c0,0.4,0.4,0.8,0.8,0.8h1.8c0.4,0,0.8-0.4,0.8-0.8l0,0
				C510,145.2,509.6,144.8,509.2,144.8z"/>
			<path class="st9" d="M514.4,144.8h-1.8c-0.4,0-0.8,0.4-0.8,0.8l0,0c0,0.4,0.4,0.8,0.8,0.8h1.8c0.4,0,0.8-0.4,0.8-0.8l0,0
				C515.2,145.2,514.9,144.8,514.4,144.8z"/>
		</g>
		<g>
			<path class="st9" d="M499,155.1h-1.8c-0.4,0-0.8,0.4-0.8,0.8l0,0c0,0.4,0.4,0.8,0.8,0.8h1.8c0.4,0,0.8-0.4,0.8-0.8l0,0
				C499.8,155.4,499.5,155.1,499,155.1z"/>
			<path class="st9" d="M503.9,155.1h-1.8c-0.4,0-0.8,0.4-0.8,0.8l0,0c0,0.4,0.4,0.8,0.8,0.8h1.8c0.4,0,0.8-0.4,0.8-0.8l0,0
				C504.7,155.4,504.4,155.1,503.9,155.1z"/>
			<path class="st9" d="M509.1,155.1h-1.8c-0.4,0-0.8,0.4-0.8,0.8l0,0c0,0.4,0.4,0.8,0.8,0.8h1.8c0.4,0,0.8-0.4,0.8-0.8l0,0
				C509.9,155.4,509.5,155.1,509.1,155.1z"/>
			<path class="st9" d="M514.3,155.1h-1.8c-0.4,0-0.8,0.4-0.8,0.8l0,0c0,0.4,0.4,0.8,0.8,0.8h1.8c0.4,0,0.8-0.4,0.8-0.8l0,0
				C515.1,155.4,514.7,155.1,514.3,155.1z"/>
		</g>
		<path class="st9" d="M549.3,142.4c0-0.4-0.3-0.6-0.6-0.6h-1.3v-1.7c0-0.4-0.3-0.6-0.6-0.6H538v-1c0-0.4-0.3-0.6-0.6-0.6h-4.8
			c-0.4,0-0.6,0.3-0.6,0.6c0,0.1,0,0.1,0,0.1v0.1V150c0,0.4,0.3,0.6,0.6,0.6h0.1h0.1h14.1c0.3,0,0.5-0.2,0.6-0.4c0,0,0-0.1,0.1-0.1
			l1.8-7.4C549.3,142.6,549.3,142.5,549.3,142.4L549.3,142.4z M534.6,141.7c-0.2,0-0.4,0.1-0.5,0.3c-0.1,0.1-0.1,0.2-0.1,0.2
			l-0.7,2.9V139h3.5v1l0,0l0,0c0,0.4,0.3,0.6,0.6,0.6h8.7v1L534.6,141.7L534.6,141.7z M546.3,149.4h-12.8l1.6-6.4h12.8L546.3,149.4z
			"/>
		<path class="st9" d="M549.3,171c0-0.4-0.3-0.6-0.6-0.6h-1.3v-1.7c0-0.4-0.3-0.6-0.6-0.6H538v-1c0-0.4-0.3-0.6-0.6-0.6h-4.8
			c-0.4,0-0.6,0.3-0.6,0.6c0,0.1,0,0.1,0,0.1v0.1v11.3c0,0.4,0.3,0.6,0.6,0.6h0.1h0.1h14.1c0.3,0,0.5-0.2,0.6-0.4c0,0,0-0.1,0.1-0.1
			l1.8-7.4C549.3,171.3,549.3,171.2,549.3,171C549.3,171.1,549.3,171,549.3,171z M534.6,170.4c-0.2,0-0.4,0.1-0.5,0.3
			c-0.1,0.1-0.1,0.2-0.1,0.2l-0.7,2.9v-6.2h3.5v1l0,0l0,0c0,0.4,0.3,0.6,0.6,0.6h8.7v1h-11.5V170.4z M546.3,178h-12.8l1.6-6.4h12.8
			L546.3,178z"/>
		<path class="st9" d="M549.1,116.5c0-0.4-0.3-0.6-0.6-0.6h-1.3v-1.7c0-0.4-0.3-0.6-0.6-0.6h-8.7v-1c0-0.4-0.3-0.6-0.6-0.6h-4.8
			c-0.4,0-0.6,0.3-0.6,0.6c0,0.1,0,0.1,0,0.1v0.1v11.3c0,0.4,0.3,0.6,0.6,0.6h0.1h0.1h14.1c0.3,0,0.5-0.2,0.6-0.4c0,0,0-0.1,0.1-0.1
			l1.8-7.4C549.1,116.8,549.1,116.7,549.1,116.5C549.1,116.6,549.1,116.5,549.1,116.5z M534.4,115.9c-0.2,0-0.4,0.1-0.5,0.3
			c-0.1,0.1-0.1,0.2-0.1,0.2l-0.7,2.9v-6.2h3.5v1l0,0l0,0c0,0.4,0.3,0.6,0.6,0.6h8.7v1h-11.5V115.9z M546.1,123.5h-12.8l1.6-6.4
			h12.8L546.1,123.5z"/>
		<g>
			<g>
				<path class="st9" d="M505.3,130C505.3,130,505.2,130,505.3,130c-0.2,0-0.3-0.2-0.3-0.3c0,0,0-0.2,0-0.8c0-0.2,0.1-0.3,0.3-0.3
					l0,0c0.2,0,0.3,0.1,0.3,0.3c0,0.8,0,0.8,0,0.8C505.6,129.9,505.4,130,505.3,130z"/>
			</g>
			<g>
				<path class="st9" d="M505.3,127.6L505.3,127.6c-0.2,0-0.3-0.1-0.3-0.3v-1v-0.5c0-0.2,0.1-0.3,0.3-0.3l0,0c0.2,0,0.3,0.1,0.3,0.3
					v0.5v1C505.6,127.5,505.5,127.6,505.3,127.6z M505.3,124.6c-0.2,0-0.3-0.1-0.3-0.3v-1.5c0-0.2,0.1-0.3,0.3-0.3l0,0
					c0.2,0,0.3,0.1,0.3,0.3v1.5C505.6,124.5,505.5,124.6,505.3,124.6L505.3,124.6z M505.3,121.5c-0.2,0-0.3-0.1-0.3-0.3v-1.5
					c0-0.2,0.1-0.3,0.3-0.3l0,0c0.2,0,0.3,0.1,0.3,0.3v1.5C505.6,121.4,505.5,121.5,505.3,121.5L505.3,121.5z"/>
			</g>
			<g>
				<path class="st9" d="M505.3,118.5c-0.2,0-0.3-0.1-0.3-0.3v-0.8c0-0.1,0-0.2,0.1-0.2c0.1-0.1,0.1-0.1,0.2-0.1h0.8
					c0.2,0,0.3,0.1,0.3,0.3s-0.1,0.3-0.3,0.3h-0.5v0.5C505.6,118.4,505.4,118.5,505.3,118.5L505.3,118.5z"/>
			</g>
			<g>
				<path class="st9" d="M530.1,117.7h-1.5c-0.2,0-0.3-0.1-0.3-0.3s0.1-0.3,0.3-0.3h1.5c0.2,0,0.3,0.1,0.3,0.3
					S530.3,117.7,530.1,117.7z M527.1,117.7h-1.5c-0.2,0-0.3-0.1-0.3-0.3s0.1-0.3,0.3-0.3h1.5c0.2,0,0.3,0.1,0.3,0.3
					S527.3,117.7,527.1,117.7z M524.1,117.7h-1.5c-0.2,0-0.3-0.1-0.3-0.3s0.1-0.3,0.3-0.3h1.5c0.2,0,0.3,0.1,0.3,0.3
					S524.3,117.7,524.1,117.7z M521.1,117.7h-1.5c-0.2,0-0.3-0.1-0.3-0.3s0.1-0.3,0.3-0.3h1.5c0.2,0,0.3,0.1,0.3,0.3
					S521.3,117.7,521.1,117.7z M518.1,117.7h-1.5c-0.2,0-0.3-0.1-0.3-0.3s0.1-0.3,0.3-0.3h1.5c0.2,0,0.3,0.1,0.3,0.3
					S518.3,117.7,518.1,117.7z M515.1,117.7h-1.5c-0.2,0-0.3-0.1-0.3-0.3s0.1-0.3,0.3-0.3h1.5c0.2,0,0.3,0.1,0.3,0.3
					S515.3,117.7,515.1,117.7z M512.1,117.7h-1.5c-0.2,0-0.3-0.1-0.3-0.3s0.1-0.3,0.3-0.3h1.5c0.2,0,0.3,0.1,0.3,0.3
					S512.3,117.7,512.1,117.7z M509.1,117.7h-1.5c-0.2,0-0.3-0.1-0.3-0.3s0.1-0.3,0.3-0.3h1.5c0.2,0,0.3,0.1,0.3,0.3
					S509.3,117.7,509.1,117.7z"/>
			</g>
			<g>
				<path class="st9" d="M532.4,117.7h-0.8c-0.2,0-0.3-0.1-0.3-0.3s0.1-0.3,0.3-0.3h0.8c0.2,0,0.3,0.1,0.3,0.3
					S532.6,117.7,532.4,117.7z"/>
			</g>
		</g>
		<g>
			<g>
				<path class="st9" d="M505.3,162.6c-0.2,0-0.3-0.1-0.3-0.3c0-0.6,0-0.7,0-0.8c0-0.2,0.1-0.3,0.3-0.3c0.2,0,0.3,0.1,0.3,0.3
					c0,0,0,0.1,0,0.8C505.6,162.5,505.5,162.6,505.3,162.6L505.3,162.6z"/>
			</g>
			<g>
				<path class="st9" d="M505.3,171.8L505.3,171.8c-0.2,0-0.3-0.1-0.3-0.3V170c0-0.2,0.1-0.3,0.3-0.3l0,0c0.2,0,0.3,0.1,0.3,0.3v1.5
					C505.6,171.7,505.5,171.8,505.3,171.8z M505.3,168.7L505.3,168.7c-0.2,0-0.3-0.1-0.3-0.3v-1.5c0-0.2,0.1-0.3,0.3-0.3l0,0
					c0.2,0,0.3,0.1,0.3,0.3v1.5C505.6,168.6,505.5,168.7,505.3,168.7z M505.3,165.7L505.3,165.7c-0.2,0-0.3-0.1-0.3-0.3v-0.5v-1
					c0-0.2,0.1-0.3,0.3-0.3l0,0c0.2,0,0.3,0.1,0.3,0.3v1v0.5C505.6,165.6,505.5,165.7,505.3,165.7z"/>
			</g>
			<g>
				<path class="st9" d="M506.1,174.1h-0.8c-0.1,0-0.2,0-0.2-0.1c-0.1-0.1-0.1-0.1-0.1-0.2V173c0-0.2,0.1-0.3,0.3-0.3l0,0
					c0.2,0,0.3,0.1,0.3,0.3v0.5h0.5c0.2,0,0.3,0.1,0.3,0.3C506.4,174,506.2,174.1,506.1,174.1z"/>
			</g>
			<g>
				<path class="st9" d="M530.1,174.1h-1.5c-0.2,0-0.3-0.1-0.3-0.3s0.1-0.3,0.3-0.3h1.5c0.2,0,0.3,0.1,0.3,0.3
					C530.4,174,530.3,174.1,530.1,174.1z M527.1,174.1h-1.5c-0.2,0-0.3-0.1-0.3-0.3s0.1-0.3,0.3-0.3h1.5c0.2,0,0.3,0.1,0.3,0.3
					C527.4,174,527.3,174.1,527.1,174.1z M524.1,174.1h-1.5c-0.2,0-0.3-0.1-0.3-0.3s0.1-0.3,0.3-0.3h1.5c0.2,0,0.3,0.1,0.3,0.3
					C524.4,174,524.3,174.1,524.1,174.1z M521.1,174.1h-1.5c-0.2,0-0.3-0.1-0.3-0.3s0.1-0.3,0.3-0.3h1.5c0.2,0,0.3,0.1,0.3,0.3
					C521.4,174,521.3,174.1,521.1,174.1z M518.1,174.1h-1.5c-0.2,0-0.3-0.1-0.3-0.3s0.1-0.3,0.3-0.3h1.5c0.2,0,0.3,0.1,0.3,0.3
					C518.4,174,518.3,174.1,518.1,174.1z M515.1,174.1h-1.5c-0.2,0-0.3-0.1-0.3-0.3s0.1-0.3,0.3-0.3h1.5c0.2,0,0.3,0.1,0.3,0.3
					C515.4,174,515.3,174.1,515.1,174.1z M512.1,174.1h-1.5c-0.2,0-0.3-0.1-0.3-0.3s0.1-0.3,0.3-0.3h1.5c0.2,0,0.3,0.1,0.3,0.3
					C512.4,174,512.3,174.1,512.1,174.1z M509.1,174.1h-1.5c-0.2,0-0.3-0.1-0.3-0.3s0.1-0.3,0.3-0.3h1.5c0.2,0,0.3,0.1,0.3,0.3
					S509.3,174.1,509.1,174.1z"/>
			</g>
			<g>
				<path class="st9" d="M532.4,174.1h-0.8c-0.2,0-0.3-0.1-0.3-0.3s0.1-0.3,0.3-0.3h0.8c0.2,0,0.3,0.1,0.3,0.3
					S532.6,174.1,532.4,174.1z"/>
			</g>
		</g>
		<g>
			<g>
				<path class="st9" d="M520.8,145.9H520c-0.2,0-0.3-0.1-0.3-0.3s0.1-0.3,0.3-0.3h0.8c0.2,0,0.3,0.1,0.3,0.3
					C521.2,145.8,521,145.9,520.8,145.9z"/>
			</g>
			<g>
				<path class="st9" d="M529.6,145.9h-1.5c-0.2,0-0.3-0.1-0.3-0.3s0.1-0.3,0.3-0.3h1.5c0.2,0,0.3,0.1,0.3,0.3
					C530,145.8,529.8,145.9,529.6,145.9z M526.7,145.9h-1.5c-0.2,0-0.3-0.1-0.3-0.3s0.1-0.3,0.3-0.3h1.5c0.2,0,0.3,0.1,0.3,0.3
					C527,145.8,526.9,145.9,526.7,145.9z M523.8,145.9h-1.5c-0.2,0-0.3-0.1-0.3-0.3s0.1-0.3,0.3-0.3h1.5c0.2,0,0.3,0.1,0.3,0.3
					C524.1,145.8,523.9,145.9,523.8,145.9z"/>
			</g>
			<g>
				<path class="st9" d="M531.9,145.9h-0.8c-0.2,0-0.3-0.1-0.3-0.3s0.1-0.3,0.3-0.3h0.8c0.2,0,0.3,0.1,0.3,0.3
					C532.2,145.8,532.1,145.9,531.9,145.9z"/>
			</g>
		</g>
	</g>
	<text transform="matrix(1 0 0 1 583.3605 116.2525)" class="st9 st10 st11">ARCHIVING &amp;</text>
	<text transform="matrix(1 0 0 1 583.3605 154.6525)" class="st9 st10 st11">PUBLISHING</text>
</g>
</svg>
