<svg version="1.1" viewBox="0.0 0.0 697.2834645669292 323.9501312335958" fill="none" stroke="none" stroke-linecap="square" stroke-miterlimit="10" xmlns:xlink="http://www.w3.org/1999/xlink" xmlns="http://www.w3.org/2000/svg"><clipPath id="p.0"><path d="m0 0l697.28345 0l0 323.95013l-697.28345 0l0 -323.95013z" clip-rule="nonzero"/></clipPath><g clip-path="url(#p.0)"><path fill="#000000" fill-opacity="0.0" d="m0 0l697.28345 0l0 323.95013l-697.28345 0z" fill-rule="evenodd"/><path shape-rendering="crispEdges" fill="#666666" d="m15.188976 13.845144l111.12599 0l0 59.19422l-111.12599 0l0 -59.19422z" fill-rule="nonzero"/><path shape-rendering="crispEdges" fill="#666666" d="m126.314964 13.845144l111.125984 0l0 59.19422l-111.125984 0l0 -59.19422z" fill-rule="nonzero"/><path shape-rendering="crispEdges" fill="#b7b7b7" d="m15.188976 73.03937l111.12599 0l0 59.19423l-111.12599 0l0 -59.19423z" fill-rule="nonzero"/><path shape-rendering="crispEdges" fill="#b7b7b7" d="m126.314964 73.03937l111.125984 0l0 59.19423l-111.125984 0l0 -59.19423z" fill-rule="nonzero"/><path shape-rendering="crispEdges" fill="#b7b7b7" d="m15.188976 132.2336l111.12599 0l0 59.19423l-111.12599 0l0 -59.19423z" fill-rule="nonzero"/><path shape-rendering="crispEdges" fill="#b7b7b7" d="m126.314964 132.2336l111.125984 0l0 59.19423l-111.125984 0l0 -59.19423z" fill-rule="nonzero"/><path shape-rendering="crispEdges" fill="#b7b7b7" d="m15.188976 191.42783l111.12599 0l0 59.194214l-111.12599 0l0 -59.194214z" fill-rule="nonzero"/><path shape-rendering="crispEdges" fill="#b7b7b7" d="m126.314964 191.42783l111.125984 0l0 59.194214l-111.125984 0l0 -59.194214z" fill-rule="nonzero"/><path shape-rendering="crispEdges" fill="#b7b7b7" d="m15.188976 250.62204l111.12599 0l0 59.194244l-111.12599 0l0 -59.194244z" fill-rule="nonzero"/><path shape-rendering="crispEdges" fill="#b7b7b7" d="m126.314964 250.62204l111.125984 0l0 59.194244l-111.125984 0l0 -59.194244z" fill-rule="nonzero"/><path stroke="#ffffff" stroke-width="4.0" stroke-linecap="butt" d="m15.188976 11.845144l0 299.97113" fill-rule="nonzero"/><path stroke="#ffffff" stroke-width="4.0" stroke-linecap="butt" d="m126.314964 11.845144l0 299.97113" fill-rule="nonzero"/><path stroke="#ffffff" stroke-width="4.0" stroke-linecap="butt" d="m237.44095 11.845144l0 299.97113" fill-rule="nonzero"/><path stroke="#ffffff" stroke-width="4.0" stroke-linecap="butt" d="m13.188976 13.845144l226.25197 0" fill-rule="nonzero"/><path stroke="#ffffff" stroke-width="4.0" stroke-linecap="butt" d="m13.188976 73.03937l226.25197 0" fill-rule="nonzero"/><path stroke="#ffffff" stroke-width="4.0" stroke-linecap="butt" d="m13.188976 132.2336l226.25197 0" fill-rule="nonzero"/><path stroke="#ffffff" stroke-width="4.0" stroke-linecap="butt" d="m13.188976 191.42783l226.25197 0" fill-rule="nonzero"/><path stroke="#ffffff" stroke-width="4.0" stroke-linecap="butt" d="m13.188976 250.62204l226.25197 0" fill-rule="nonzero"/><path stroke="#ffffff" stroke-width="4.0" stroke-linecap="butt" d="m13.188976 309.81628l226.25197 0" fill-rule="nonzero"/><path shape-rendering="crispEdges" fill="#666666" d="m356.93176 13.845144l109.45932 0l0 59.19422l-109.45932 0l0 -59.19422z" fill-rule="nonzero"/><path shape-rendering="crispEdges" fill="#666666" d="m466.39108 13.845144l109.45932 0l0 59.19422l-109.45932 0l0 -59.19422z" fill-rule="nonzero"/><path shape-rendering="crispEdges" fill="#666666" d="m575.8504 13.845144l109.45929 0l0 59.19422l-109.45929 0l0 -59.19422z" fill-rule="nonzero"/><path shape-rendering="crispEdges" fill="#b7b7b7" d="m356.93176 73.03937l109.45932 0l0 59.19423l-109.45932 0l0 -59.19423z" fill-rule="nonzero"/><path shape-rendering="crispEdges" fill="#b7b7b7" d="m466.39108 73.03937l109.45932 0l0 59.19423l-109.45932 0l0 -59.19423z" fill-rule="nonzero"/><path shape-rendering="crispEdges" fill="#0b5394" d="m575.8504 73.03937l109.45929 0l0 59.19423l-109.45929 0l0 -59.19423z" fill-rule="nonzero"/><path shape-rendering="crispEdges" fill="#b7b7b7" d="m356.93176 132.2336l109.45932 0l0 59.19423l-109.45932 0l0 -59.19423z" fill-rule="nonzero"/><path shape-rendering="crispEdges" fill="#b7b7b7" d="m466.39108 132.2336l109.45932 0l0 59.19423l-109.45932 0l0 -59.19423z" fill-rule="nonzero"/><path shape-rendering="crispEdges" fill="#0b5394" d="m575.8504 132.2336l109.45929 0l0 59.19423l-109.45929 0l0 -59.19423z" fill-rule="nonzero"/><path shape-rendering="crispEdges" fill="#b7b7b7" d="m356.93176 191.42783l109.45932 0l0 59.194214l-109.45932 0l0 -59.194214z" fill-rule="nonzero"/><path shape-rendering="crispEdges" fill="#b7b7b7" d="m466.39108 191.42783l109.45932 0l0 59.194214l-109.45932 0l0 -59.194214z" fill-rule="nonzero"/><path shape-rendering="crispEdges" fill="#0b5394" d="m575.8504 191.42783l109.45929 0l0 59.194214l-109.45929 0l0 -59.194214z" fill-rule="nonzero"/><path shape-rendering="crispEdges" fill="#b7b7b7" d="m356.93176 250.62204l109.45932 0l0 59.194244l-109.45932 0l0 -59.194244z" fill-rule="nonzero"/><path shape-rendering="crispEdges" fill="#b7b7b7" d="m466.39108 250.62204l109.45932 0l0 59.194244l-109.45932 0l0 -59.194244z" fill-rule="nonzero"/><path shape-rendering="crispEdges" fill="#0b5394" d="m575.8504 250.62204l109.45929 0l0 59.194244l-109.45929 0l0 -59.194244z" fill-rule="nonzero"/><path stroke="#ffffff" stroke-width="4.0" stroke-linecap="butt" d="m356.93176 11.845144l0 299.97113" fill-rule="nonzero"/><path stroke="#ffffff" stroke-width="4.0" stroke-linecap="butt" d="m466.39108 11.845144l0 299.97113" fill-rule="nonzero"/><path stroke="#ffffff" stroke-width="4.0" stroke-linecap="butt" d="m575.8504 11.845144l0 299.97113" fill-rule="nonzero"/><path stroke="#ffffff" stroke-width="4.0" stroke-linecap="butt" d="m685.3097 11.845144l0 299.97113" fill-rule="nonzero"/><path stroke="#ffffff" stroke-width="4.0" stroke-linecap="butt" d="m354.93176 13.845144l332.37793 0" fill-rule="nonzero"/><path stroke="#ffffff" stroke-width="4.0" stroke-linecap="butt" d="m354.93176 73.03937l332.37793 0" fill-rule="nonzero"/><path stroke="#ffffff" stroke-width="4.0" stroke-linecap="butt" d="m354.93176 132.2336l332.37793 0" fill-rule="nonzero"/><path stroke="#ffffff" stroke-width="4.0" stroke-linecap="butt" d="m354.93176 191.42783l332.37793 0" fill-rule="nonzero"/><path stroke="#ffffff" stroke-width="4.0" stroke-linecap="butt" d="m354.93176 250.62204l332.37793 0" fill-rule="nonzero"/><path stroke="#ffffff" stroke-width="4.0" stroke-linecap="butt" d="m354.93176 309.81628l332.37793 0" fill-rule="nonzero"/><path fill="#cfe2f3" d="m266.28873 150.49213l39.118103 0l0 -11.338577l22.677155 22.677155l-22.677155 22.67717l0 -11.338577l-39.118103 0z" fill-rule="evenodd"/><path stroke="#000000" stroke-width="1.0" stroke-linejoin="round" stroke-linecap="butt" d="m266.28873 150.49213l39.118103 0l0 -11.338577l22.677155 22.677155l-22.677155 22.67717l0 -11.338577l-39.118103 0z" fill-rule="evenodd"/></g></svg>